<svg id="Capa_1" enable-background="new 0 0 512 512" height="512" viewBox="0 0 512 512" width="512" xmlns="http://www.w3.org/2000/svg"><g><path d="m477.897 95.651c18.804 0 34.103-15.298 34.103-34.102v-4.116h-152.267c-19.165 0-34.758 15.592-34.758 34.758v58.909c3.634-.36 7.3-.547 10.988-.547 19.141 0 37.174 4.825 52.955 13.316h41.001c18.805 0 34.103-15.298 34.103-34.103v-4.116h-76.224v-30h90.099z"/><path d="m335.964 180.553c-26.494 0-51.514 12.922-66.929 34.566l-4.485 6.298h-17.1l-4.485-6.298c-15.415-21.644-40.435-34.566-66.929-34.566-45.285 0-82.127 36.841-82.127 82.126 0 22.308 8.811 43.186 24.81 58.788l137.281 133.1 137.313-133.131c15.968-15.572 24.778-36.45 24.778-58.757 0-45.284-36.842-82.126-82.127-82.126z"/><path d="m47.978 125.651v4.116c0 18.804 15.298 34.103 34.103 34.103h41.001c15.781-8.491 33.814-13.316 52.955-13.316 3.688 0 7.354.186 10.988.547v-58.91c0-19.166-15.593-34.758-34.758-34.758h-152.267v4.116c0 18.804 15.299 34.102 34.103 34.102h90.099v30z"/></g></svg>