<svg id="Capa_1" enable-background="new 0 0 509.648 509.648" height="512" viewBox="0 0 509.648 509.648" width="512" xmlns="http://www.w3.org/2000/svg"><g><path d="m353.942 46.711c-25.581 0-46.319 20.738-46.319 46.319v80.688h54.214 57.441c25.244 0 45.708-20.464 45.708-45.709v-17.795h-1.047c25.244 0 45.708-20.464 45.708-45.709v-17.794z" fill="#e8b4b5"/><path d="m153.893 48.19h-153.893v17.588c0 24.95 20.226 45.176 45.176 45.176h-1.035v17.588c0 24.95 20.226 45.176 45.177 45.176h56.772 53.582v-79.748c.001-25.284-20.495-45.78-45.779-45.78z" fill="#f2cecd"/><path d="m433.213 245.166c0 28.05-11.075 54.297-31.178 73.902l-148.387 143.869-148.365-143.848c-20.124-19.626-31.199-45.873-31.199-73.923 0-56.921 46.308-103.229 103.236-103.229 29.151 0 56.879 12.429 76.329 33.767 19.451-21.337 47.178-33.767 76.329-33.767 56.927 0 103.235 46.308 103.235 103.229z" fill="#ff3f5c"/><path d="m433.213 245.166c0 28.05-11.075 54.297-31.178 73.902l-148.387 143.869v-287.233c19.451-21.337 47.178-33.767 76.329-33.767 56.928 0 103.236 46.308 103.236 103.229z" fill="#dd0056"/></g></svg>