<svg id="Layer_1" enable-background="new 0 0 512.001 512.001" height="512" viewBox="0 0 512.001 512.001" width="512" xmlns="http://www.w3.org/2000/svg"><path d="m410.436 92.021c-39.384 9.966-34.916 8.836-76.74 19.42l-65.28 113.08c-2.97 5.14-8.35 8-13.87 8.01-12.18 0-20.033-13.284-13.85-24.01l68.6-118.82c2.13-3.67 5.62-6.35 9.72-7.45 87.109-22.149 83.303-21.185 83.43-21.21 1.062-.287-.714-1.043 15.19 8.14l1.35-2.35c6.915 8.995 2.48 22.242-8.55 25.19z" fill="#b2b2b2"/><path d="m211.126 480.311c-29.609-5.908-54.535-11.777-81.976-24.681 130.797-83.895 26.526-179.42-33.164-130.214-59.872-49.357-163.575 46.579-33.142 130.228-9.125 4.301-18.311 7.976-27.917 11.178-8.383 2.794-12.914 11.855-10.119 20.238 2.799 8.398 11.871 12.909 20.238 10.119 17.709-5.903 34.102-13.192 50.939-22.675 38.683 21.785 68.287 28.703 107.491 36.916 6.5-2.28 12.77-4.99 18.75-8.11 4.827-9.362-.643-20.91-11.1-22.999zm-179.14-109.643c0-14.704 11.962-26.667 26.667-26.667 9.693 0 18.636 5.271 23.339 13.757 6.081 10.97 21.901 10.981 27.988 0 13.308-24.009 50.006-14.543 50.006 12.91 0 27.503-41.984 55.62-63.957 67.393-23.915-12.849-64.043-40.346-64.043-67.393z" fill="#ea8692"/><path d="m492.306 112.291c-12.553 21.743-158.128 273.892-159.49 276.25-38.051-21.969-56.995-32.896-89.6-51.73 171.094-296.259 159.178-276.423 160.01-275.95 55.978 32.321 66.375 38.32 89.08 51.43z" fill="#80aaff"/><path d="m492.306 112.289c-159.418 276.125-128.798 223.087-151.7 262.762-24.263-14.011-32.704-45.097-18.617-69.496l126.264-218.695c5.32 3.071 43.368 25.034 44.053 25.429z" fill="#6994ff"/><path d="m511.986 34.521c0 11.829-1.669 12.086-34.61 69.15-51.272-29.598-59.19-34.172-59.74-34.49 1.753-3.052.75-1.311 30-51.93 8.16-14.14 24.83-20.3 39.8-15.8 14.369 4.349 24.55 17.596 24.55 33.07z" fill="#6994ff"/><path d="m511.986 34.519c0 11.089-3.212 14.761-17.088 38.806-20.226-11.679-27.262-37.592-15.518-57.93l8.051-13.942c14.354 4.336 24.555 17.578 24.555 33.066z" fill="#80aaff"/><path d="m317.886 379.911c0 .1.217-.367-25.68 44.48-17.63 30.532-34.253 68.564-90.4 87.61-6.659-35.461-.954-67.303 14.82-94.64 19.928-34.525 10.418-18.056 41.53-71.92 22.876 13.207 8.916 5.15 59.73 34.47z" fill="#999"/><path d="m292.206 424.391c-17.63 30.532-34.253 68.564-90.4 87.61-6.659-35.461-.954-67.303 14.82-94.64l15.85-27.46z" fill="#b2b2b2"/></svg>